<svg width="75" height="75" viewBox="0 0 75 75" fill="none" xmlns="http://www.w3.org/2000/svg">
<mask id="path-1-inside-1_189_812" fill="white">
<path fill-rule="evenodd" clip-rule="evenodd" d="M25.9717 37.9882C29.3835 40.2673 33.3948 41.4838 37.4982 41.4838C42.9988 41.4779 48.2725 39.2907 52.162 35.4021C56.0516 31.5136 58.2393 26.2412 58.2452 20.7419C58.2452 16.6396 57.0284 12.6293 54.7487 9.21831C52.469 5.80735 49.2287 3.14881 45.4377 1.5789C41.6466 0.00899999 37.4751 -0.401769 33.4506 0.398544C29.4261 1.1989 25.7293 3.17435 22.8278 6.07519C19.9262 8.97598 17.9503 12.6719 17.1497 16.6954C16.3492 20.7189 16.7601 24.8894 18.3304 28.6795C19.9007 32.4696 22.5599 35.709 25.9717 37.9882ZM28.0841 6.65639C30.8707 4.79493 34.1468 3.80141 37.4982 3.80141C41.9906 3.80632 46.2977 5.5927 49.4744 8.76859C52.6511 11.9445 54.4379 16.2505 54.4429 20.7419C54.4429 24.0924 53.4491 27.3677 51.5872 30.1536C49.7252 32.9394 47.0788 35.1107 43.9826 36.3929C40.8864 37.6751 37.4793 38.0106 34.1924 37.3569C30.9054 36.7033 27.8861 35.0899 25.5164 32.7207C23.1466 30.3515 21.5328 27.333 20.879 24.0469C20.2252 20.7607 20.5607 17.3545 21.8432 14.2591C23.1258 11.1636 25.2976 8.51785 28.0841 6.65639Z"/>
<path fill-rule="evenodd" clip-rule="evenodd" d="M52.5957 42.1428C58.1893 43.6917 63.7718 46.5883 67.913 50.0956C72.4825 53.9863 75 58.3052 75 62.3076V74.2218C74.999 74.4279 74.9167 74.6253 74.7709 74.771C74.6252 74.9167 74.4278 74.999 74.2217 75H0.778328C0.57221 74.999 0.374821 74.9167 0.229075 74.771C0.0832835 74.6253 0.00100013 74.4279 0 74.2218V62.3076C0 58.3052 2.51751 53.9863 7.08701 50.0918C11.1426 46.6553 16.617 43.7885 22.1026 42.2247L23.0188 41.9641C23.1961 41.9139 23.3856 41.9283 23.5533 42.0046C23.7211 42.081 23.8563 42.2144 23.9349 42.3811L24.4302 43.431C24.4935 43.5688 24.5569 43.7103 24.6239 43.8704L24.6536 43.9374C24.7058 44.0566 24.7617 44.1869 24.8138 44.3097L24.8957 44.4884H49.5717L49.6574 44.306C49.9056 43.7586 50.2236 43.2455 50.6033 42.7795L51.0241 42.2247C51.1173 42.0996 51.246 42.0053 51.3934 41.9542C51.5408 41.9031 51.7002 41.8975 51.8509 41.938L52.5957 42.1428ZM70.9686 70.951C71.1144 70.8053 71.1967 70.6079 71.1976 70.4018L71.1865 62.3076C71.1865 59.4854 69.0936 56.0936 65.4439 52.9996C63.6945 51.5375 61.8032 50.2541 59.7982 49.1685C59.7666 51.6469 59.4682 54.1147 58.9081 56.5292H60.0253C60.5246 56.5297 61.0139 56.6692 61.4382 56.9323C61.8625 57.1954 62.2051 57.5715 62.4274 58.0185L64.2224 61.6077C64.4087 61.9799 64.5056 62.3903 64.5054 62.8065V66.0271C64.5054 66.7391 64.2225 67.4218 63.719 67.9253C63.2154 68.4287 62.5325 68.7115 61.8203 68.7115H59.2135C59.1101 68.712 59.0078 68.692 58.9121 68.6527C58.8166 68.6134 58.7298 68.5556 58.6567 68.4825C58.5837 68.4095 58.5258 68.3227 58.4865 68.2271C58.4472 68.1316 58.4272 68.0292 58.4277 67.9259V65.692C58.4277 65.589 58.448 65.487 58.4875 65.3919C58.5271 65.2968 58.585 65.2105 58.658 65.1378C58.7311 65.0652 58.8177 65.0077 58.9131 64.9686C59.0083 64.9295 59.1104 64.9097 59.2135 64.9101H59.9136C60.0166 64.9101 60.1186 64.8898 60.2137 64.8503C60.3089 64.8107 60.3952 64.7528 60.4679 64.6798C60.5406 64.6068 60.5981 64.5202 60.6372 64.4249C60.6763 64.3296 60.6962 64.2275 60.6957 64.1245V63.257C60.6973 63.1354 60.6692 63.0153 60.6137 62.9071L59.5449 60.77C59.4799 60.64 59.3799 60.5308 59.2562 60.4545C59.1326 60.3782 58.9901 60.3379 58.8448 60.3381H53.7874C53.642 60.3375 53.4994 60.3776 53.3756 60.454C53.2519 60.5303 53.152 60.6398 53.0873 60.77L52.0184 62.9071C51.999 62.945 51.9829 62.9844 51.9703 63.0249C51.9469 63.0997 51.9354 63.1781 51.9365 63.257V64.1245C51.9361 64.2275 51.9559 64.3296 51.995 64.4249C52.0341 64.5202 52.0916 64.6068 52.1643 64.6798C52.237 64.7528 52.3233 64.8107 52.4184 64.8503C52.5136 64.8898 52.6156 64.9101 52.7186 64.9101H53.4374C53.6451 64.9101 53.8444 64.9924 53.9917 65.1389C54.1389 65.2854 54.2222 65.4843 54.2231 65.692V67.9259C54.2231 68.1343 54.1404 68.3341 53.993 68.4814C53.8456 68.6288 53.6457 68.7115 53.4374 68.7115H50.8305C50.4781 68.7115 50.1291 68.6421 49.8035 68.5071C49.4779 68.3722 49.1822 68.1744 48.9331 67.925C48.6841 67.6757 48.4867 67.3798 48.3521 67.0541C48.2176 66.7284 48.1486 66.3794 48.1491 66.0271V62.8065C48.1489 62.3903 48.2459 61.9799 48.4322 61.6077L50.2272 58.0185C50.4488 57.5718 50.7907 57.1958 51.2144 56.9328C51.6381 56.6696 52.1267 56.5299 52.6255 56.5292H54.9977C55.6271 54.5261 56.2677 49.4887 55.9288 47.3255C55.1653 47.009 54.3945 46.7075 53.6161 46.4431C53.4333 46.383 53.2347 46.3927 53.0586 46.4704C52.8826 46.5481 52.7415 46.6883 52.6628 46.8638L52.2196 47.8356C52.1585 47.972 52.0591 48.0879 51.9335 48.1692C51.808 48.2505 51.6616 48.2936 51.512 48.2935H22.9331C22.7831 48.2934 22.6363 48.2502 22.5102 48.169C22.3841 48.0878 22.284 47.9721 22.2218 47.8356L21.8494 47.0239C21.7705 46.846 21.6274 46.7042 21.4487 46.6269C21.2699 46.5496 21.0686 46.5425 20.8848 46.6069C20.1102 46.8825 19.343 47.1915 18.5796 47.5191C18.2594 49.3695 18.7137 53.3832 19.2574 55.5873C19.7475 55.486 20.2466 55.4349 20.747 55.4346C22.4151 55.4315 24.032 56.0103 25.3189 57.0713C26.6058 58.1322 27.4822 59.6089 27.7969 61.2465C28.1116 62.8842 27.8449 64.5804 27.0429 66.0425C26.2407 67.5047 24.9535 68.6413 23.4031 69.2564C21.8526 69.8715 20.1361 69.9265 18.5495 69.4119C16.9628 68.8973 15.6055 67.8454 14.7114 66.4376C13.8173 65.0298 13.4426 63.3542 13.6518 61.6997C13.8609 60.0452 14.6409 58.5156 15.8573 57.3744C15.116 54.7939 14.7277 52.125 14.7028 49.4403C12.8773 50.4649 11.1505 51.6565 9.54491 52.9996C5.89526 56.0899 3.80231 59.4817 3.80231 62.3076V70.4018C3.80331 70.6079 3.88564 70.8053 4.03138 70.951C4.17713 71.0967 4.37452 71.179 4.58068 71.18H70.4193C70.6254 71.179 70.8229 71.0967 70.9686 70.951ZM22.6267 59.8002C22.0702 59.4292 21.416 59.2315 20.747 59.2323C19.8509 59.2333 18.9917 59.5899 18.3584 60.2238C17.725 60.8576 17.3693 61.717 17.3693 62.6129C17.3693 63.2817 17.5677 63.9355 17.9394 64.4915C18.3111 65.0475 18.8395 65.4808 19.4576 65.7366C20.0757 65.9924 20.7558 66.0591 21.4119 65.9284C22.0679 65.7976 22.6704 65.4753 23.1432 65.0021C23.616 64.5289 23.9377 63.9262 24.0677 63.2702C24.1978 62.6142 24.1303 61.9343 23.8738 61.3166C23.6173 60.699 23.1833 60.1712 22.6267 59.8002Z"/>
</mask>
<path fill-rule="evenodd" clip-rule="evenodd" d="M25.9717 37.9882C29.3835 40.2673 33.3948 41.4838 37.4982 41.4838C42.9988 41.4779 48.2725 39.2907 52.162 35.4021C56.0516 31.5136 58.2393 26.2412 58.2452 20.7419C58.2452 16.6396 57.0284 12.6293 54.7487 9.21831C52.469 5.80735 49.2287 3.14881 45.4377 1.5789C41.6466 0.00899999 37.4751 -0.401769 33.4506 0.398544C29.4261 1.1989 25.7293 3.17435 22.8278 6.07519C19.9262 8.97598 17.9503 12.6719 17.1497 16.6954C16.3492 20.7189 16.7601 24.8894 18.3304 28.6795C19.9007 32.4696 22.5599 35.709 25.9717 37.9882ZM28.0841 6.65639C30.8707 4.79493 34.1468 3.80141 37.4982 3.80141C41.9906 3.80632 46.2977 5.5927 49.4744 8.76859C52.6511 11.9445 54.4379 16.2505 54.4429 20.7419C54.4429 24.0924 53.4491 27.3677 51.5872 30.1536C49.7252 32.9394 47.0788 35.1107 43.9826 36.3929C40.8864 37.6751 37.4793 38.0106 34.1924 37.3569C30.9054 36.7033 27.8861 35.0899 25.5164 32.7207C23.1466 30.3515 21.5328 27.333 20.879 24.0469C20.2252 20.7607 20.5607 17.3545 21.8432 14.2591C23.1258 11.1636 25.2976 8.51785 28.0841 6.65639Z" fill="url(#paint0_linear_189_812)"/>
<path fill-rule="evenodd" clip-rule="evenodd" d="M52.5957 42.1428C58.1893 43.6917 63.7718 46.5883 67.913 50.0956C72.4825 53.9863 75 58.3052 75 62.3076V74.2218C74.999 74.4279 74.9167 74.6253 74.7709 74.771C74.6252 74.9167 74.4278 74.999 74.2217 75H0.778328C0.57221 74.999 0.374821 74.9167 0.229075 74.771C0.0832835 74.6253 0.00100013 74.4279 0 74.2218V62.3076C0 58.3052 2.51751 53.9863 7.08701 50.0918C11.1426 46.6553 16.617 43.7885 22.1026 42.2247L23.0188 41.9641C23.1961 41.9139 23.3856 41.9283 23.5533 42.0046C23.7211 42.081 23.8563 42.2144 23.9349 42.3811L24.4302 43.431C24.4935 43.5688 24.5569 43.7103 24.6239 43.8704L24.6536 43.9374C24.7058 44.0566 24.7617 44.1869 24.8138 44.3097L24.8957 44.4884H49.5717L49.6574 44.306C49.9056 43.7586 50.2236 43.2455 50.6033 42.7795L51.0241 42.2247C51.1173 42.0996 51.246 42.0053 51.3934 41.9542C51.5408 41.9031 51.7002 41.8975 51.8509 41.938L52.5957 42.1428ZM70.9686 70.951C71.1144 70.8053 71.1967 70.6079 71.1976 70.4018L71.1865 62.3076C71.1865 59.4854 69.0936 56.0936 65.4439 52.9996C63.6945 51.5375 61.8032 50.2541 59.7982 49.1685C59.7666 51.6469 59.4682 54.1147 58.9081 56.5292H60.0253C60.5246 56.5297 61.0139 56.6692 61.4382 56.9323C61.8625 57.1954 62.2051 57.5715 62.4274 58.0185L64.2224 61.6077C64.4087 61.9799 64.5056 62.3903 64.5054 62.8065V66.0271C64.5054 66.7391 64.2225 67.4218 63.719 67.9253C63.2154 68.4287 62.5325 68.7115 61.8203 68.7115H59.2135C59.1101 68.712 59.0078 68.692 58.9121 68.6527C58.8166 68.6134 58.7298 68.5556 58.6567 68.4825C58.5837 68.4095 58.5258 68.3227 58.4865 68.2271C58.4472 68.1316 58.4272 68.0292 58.4277 67.9259V65.692C58.4277 65.589 58.448 65.487 58.4875 65.3919C58.5271 65.2968 58.585 65.2105 58.658 65.1378C58.7311 65.0652 58.8177 65.0077 58.9131 64.9686C59.0083 64.9295 59.1104 64.9097 59.2135 64.9101H59.9136C60.0166 64.9101 60.1186 64.8898 60.2137 64.8503C60.3089 64.8107 60.3952 64.7528 60.4679 64.6798C60.5406 64.6068 60.5981 64.5202 60.6372 64.4249C60.6763 64.3296 60.6962 64.2275 60.6957 64.1245V63.257C60.6973 63.1354 60.6692 63.0153 60.6137 62.9071L59.5449 60.77C59.4799 60.64 59.3799 60.5308 59.2562 60.4545C59.1326 60.3782 58.9901 60.3379 58.8448 60.3381H53.7874C53.642 60.3375 53.4994 60.3776 53.3756 60.454C53.2519 60.5303 53.152 60.6398 53.0873 60.77L52.0184 62.9071C51.999 62.945 51.9829 62.9844 51.9703 63.0249C51.9469 63.0997 51.9354 63.1781 51.9365 63.257V64.1245C51.9361 64.2275 51.9559 64.3296 51.995 64.4249C52.0341 64.5202 52.0916 64.6068 52.1643 64.6798C52.237 64.7528 52.3233 64.8107 52.4184 64.8503C52.5136 64.8898 52.6156 64.9101 52.7186 64.9101H53.4374C53.6451 64.9101 53.8444 64.9924 53.9917 65.1389C54.1389 65.2854 54.2222 65.4843 54.2231 65.692V67.9259C54.2231 68.1343 54.1404 68.3341 53.993 68.4814C53.8456 68.6288 53.6457 68.7115 53.4374 68.7115H50.8305C50.4781 68.7115 50.1291 68.6421 49.8035 68.5071C49.4779 68.3722 49.1822 68.1744 48.9331 67.925C48.6841 67.6757 48.4867 67.3798 48.3521 67.0541C48.2176 66.7284 48.1486 66.3794 48.1491 66.0271V62.8065C48.1489 62.3903 48.2459 61.9799 48.4322 61.6077L50.2272 58.0185C50.4488 57.5718 50.7907 57.1958 51.2144 56.9328C51.6381 56.6696 52.1267 56.5299 52.6255 56.5292H54.9977C55.6271 54.5261 56.2677 49.4887 55.9288 47.3255C55.1653 47.009 54.3945 46.7075 53.6161 46.4431C53.4333 46.383 53.2347 46.3927 53.0586 46.4704C52.8826 46.5481 52.7415 46.6883 52.6628 46.8638L52.2196 47.8356C52.1585 47.972 52.0591 48.0879 51.9335 48.1692C51.808 48.2505 51.6616 48.2936 51.512 48.2935H22.9331C22.7831 48.2934 22.6363 48.2502 22.5102 48.169C22.3841 48.0878 22.284 47.9721 22.2218 47.8356L21.8494 47.0239C21.7705 46.846 21.6274 46.7042 21.4487 46.6269C21.2699 46.5496 21.0686 46.5425 20.8848 46.6069C20.1102 46.8825 19.343 47.1915 18.5796 47.5191C18.2594 49.3695 18.7137 53.3832 19.2574 55.5873C19.7475 55.486 20.2466 55.4349 20.747 55.4346C22.4151 55.4315 24.032 56.0103 25.3189 57.0713C26.6058 58.1322 27.4822 59.6089 27.7969 61.2465C28.1116 62.8842 27.8449 64.5804 27.0429 66.0425C26.2407 67.5047 24.9535 68.6413 23.4031 69.2564C21.8526 69.8715 20.1361 69.9265 18.5495 69.4119C16.9628 68.8973 15.6055 67.8454 14.7114 66.4376C13.8173 65.0298 13.4426 63.3542 13.6518 61.6997C13.8609 60.0452 14.6409 58.5156 15.8573 57.3744C15.116 54.7939 14.7277 52.125 14.7028 49.4403C12.8773 50.4649 11.1505 51.6565 9.54491 52.9996C5.89526 56.0899 3.80231 59.4817 3.80231 62.3076V70.4018C3.80331 70.6079 3.88564 70.8053 4.03138 70.951C4.17713 71.0967 4.37452 71.179 4.58068 71.18H70.4193C70.6254 71.179 70.8229 71.0967 70.9686 70.951ZM22.6267 59.8002C22.0702 59.4292 21.416 59.2315 20.747 59.2323C19.8509 59.2333 18.9917 59.5899 18.3584 60.2238C17.725 60.8576 17.3693 61.717 17.3693 62.6129C17.3693 63.2817 17.5677 63.9355 17.9394 64.4915C18.3111 65.0475 18.8395 65.4808 19.4576 65.7366C20.0757 65.9924 20.7558 66.0591 21.4119 65.9284C22.0679 65.7976 22.6704 65.4753 23.1432 65.0021C23.616 64.5289 23.9377 63.9262 24.0677 63.2702C24.1978 62.6142 24.1303 61.9343 23.8738 61.3166C23.6173 60.699 23.1833 60.1712 22.6267 59.8002Z" fill="url(#paint1_linear_189_812)"/>
<path fill-rule="evenodd" clip-rule="evenodd" d="M25.9717 37.9882C29.3835 40.2673 33.3948 41.4838 37.4982 41.4838C42.9988 41.4779 48.2725 39.2907 52.162 35.4021C56.0516 31.5136 58.2393 26.2412 58.2452 20.7419C58.2452 16.6396 57.0284 12.6293 54.7487 9.21831C52.469 5.80735 49.2287 3.14881 45.4377 1.5789C41.6466 0.00899999 37.4751 -0.401769 33.4506 0.398544C29.4261 1.1989 25.7293 3.17435 22.8278 6.07519C19.9262 8.97598 17.9503 12.6719 17.1497 16.6954C16.3492 20.7189 16.7601 24.8894 18.3304 28.6795C19.9007 32.4696 22.5599 35.709 25.9717 37.9882ZM28.0841 6.65639C30.8707 4.79493 34.1468 3.80141 37.4982 3.80141C41.9906 3.80632 46.2977 5.5927 49.4744 8.76859C52.6511 11.9445 54.4379 16.2505 54.4429 20.7419C54.4429 24.0924 53.4491 27.3677 51.5872 30.1536C49.7252 32.9394 47.0788 35.1107 43.9826 36.3929C40.8864 37.6751 37.4793 38.0106 34.1924 37.3569C30.9054 36.7033 27.8861 35.0899 25.5164 32.7207C23.1466 30.3515 21.5328 27.333 20.879 24.0469C20.2252 20.7607 20.5607 17.3545 21.8432 14.2591C23.1258 11.1636 25.2976 8.51785 28.0841 6.65639Z" stroke="#EFF9FB" stroke-width="0.6" mask="url(#path-1-inside-1_189_812)"/>
<path fill-rule="evenodd" clip-rule="evenodd" d="M52.5957 42.1428C58.1893 43.6917 63.7718 46.5883 67.913 50.0956C72.4825 53.9863 75 58.3052 75 62.3076V74.2218C74.999 74.4279 74.9167 74.6253 74.7709 74.771C74.6252 74.9167 74.4278 74.999 74.2217 75H0.778328C0.57221 74.999 0.374821 74.9167 0.229075 74.771C0.0832835 74.6253 0.00100013 74.4279 0 74.2218V62.3076C0 58.3052 2.51751 53.9863 7.08701 50.0918C11.1426 46.6553 16.617 43.7885 22.1026 42.2247L23.0188 41.9641C23.1961 41.9139 23.3856 41.9283 23.5533 42.0046C23.7211 42.081 23.8563 42.2144 23.9349 42.3811L24.4302 43.431C24.4935 43.5688 24.5569 43.7103 24.6239 43.8704L24.6536 43.9374C24.7058 44.0566 24.7617 44.1869 24.8138 44.3097L24.8957 44.4884H49.5717L49.6574 44.306C49.9056 43.7586 50.2236 43.2455 50.6033 42.7795L51.0241 42.2247C51.1173 42.0996 51.246 42.0053 51.3934 41.9542C51.5408 41.9031 51.7002 41.8975 51.8509 41.938L52.5957 42.1428ZM70.9686 70.951C71.1144 70.8053 71.1967 70.6079 71.1976 70.4018L71.1865 62.3076C71.1865 59.4854 69.0936 56.0936 65.4439 52.9996C63.6945 51.5375 61.8032 50.2541 59.7982 49.1685C59.7666 51.6469 59.4682 54.1147 58.9081 56.5292H60.0253C60.5246 56.5297 61.0139 56.6692 61.4382 56.9323C61.8625 57.1954 62.2051 57.5715 62.4274 58.0185L64.2224 61.6077C64.4087 61.9799 64.5056 62.3903 64.5054 62.8065V66.0271C64.5054 66.7391 64.2225 67.4218 63.719 67.9253C63.2154 68.4287 62.5325 68.7115 61.8203 68.7115H59.2135C59.1101 68.712 59.0078 68.692 58.9121 68.6527C58.8166 68.6134 58.7298 68.5556 58.6567 68.4825C58.5837 68.4095 58.5258 68.3227 58.4865 68.2271C58.4472 68.1316 58.4272 68.0292 58.4277 67.9259V65.692C58.4277 65.589 58.448 65.487 58.4875 65.3919C58.5271 65.2968 58.585 65.2105 58.658 65.1378C58.7311 65.0652 58.8177 65.0077 58.9131 64.9686C59.0083 64.9295 59.1104 64.9097 59.2135 64.9101H59.9136C60.0166 64.9101 60.1186 64.8898 60.2137 64.8503C60.3089 64.8107 60.3952 64.7528 60.4679 64.6798C60.5406 64.6068 60.5981 64.5202 60.6372 64.4249C60.6763 64.3296 60.6962 64.2275 60.6957 64.1245V63.257C60.6973 63.1354 60.6692 63.0153 60.6137 62.9071L59.5449 60.77C59.4799 60.64 59.3799 60.5308 59.2562 60.4545C59.1326 60.3782 58.9901 60.3379 58.8448 60.3381H53.7874C53.642 60.3375 53.4994 60.3776 53.3756 60.454C53.2519 60.5303 53.152 60.6398 53.0873 60.77L52.0184 62.9071C51.999 62.945 51.9829 62.9844 51.9703 63.0249C51.9469 63.0997 51.9354 63.1781 51.9365 63.257V64.1245C51.9361 64.2275 51.9559 64.3296 51.995 64.4249C52.0341 64.5202 52.0916 64.6068 52.1643 64.6798C52.237 64.7528 52.3233 64.8107 52.4184 64.8503C52.5136 64.8898 52.6156 64.9101 52.7186 64.9101H53.4374C53.6451 64.9101 53.8444 64.9924 53.9917 65.1389C54.1389 65.2854 54.2222 65.4843 54.2231 65.692V67.9259C54.2231 68.1343 54.1404 68.3341 53.993 68.4814C53.8456 68.6288 53.6457 68.7115 53.4374 68.7115H50.8305C50.4781 68.7115 50.1291 68.6421 49.8035 68.5071C49.4779 68.3722 49.1822 68.1744 48.9331 67.925C48.6841 67.6757 48.4867 67.3798 48.3521 67.0541C48.2176 66.7284 48.1486 66.3794 48.1491 66.0271V62.8065C48.1489 62.3903 48.2459 61.9799 48.4322 61.6077L50.2272 58.0185C50.4488 57.5718 50.7907 57.1958 51.2144 56.9328C51.6381 56.6696 52.1267 56.5299 52.6255 56.5292H54.9977C55.6271 54.5261 56.2677 49.4887 55.9288 47.3255C55.1653 47.009 54.3945 46.7075 53.6161 46.4431C53.4333 46.383 53.2347 46.3927 53.0586 46.4704C52.8826 46.5481 52.7415 46.6883 52.6628 46.8638L52.2196 47.8356C52.1585 47.972 52.0591 48.0879 51.9335 48.1692C51.808 48.2505 51.6616 48.2936 51.512 48.2935H22.9331C22.7831 48.2934 22.6363 48.2502 22.5102 48.169C22.3841 48.0878 22.284 47.9721 22.2218 47.8356L21.8494 47.0239C21.7705 46.846 21.6274 46.7042 21.4487 46.6269C21.2699 46.5496 21.0686 46.5425 20.8848 46.6069C20.1102 46.8825 19.343 47.1915 18.5796 47.5191C18.2594 49.3695 18.7137 53.3832 19.2574 55.5873C19.7475 55.486 20.2466 55.4349 20.747 55.4346C22.4151 55.4315 24.032 56.0103 25.3189 57.0713C26.6058 58.1322 27.4822 59.6089 27.7969 61.2465C28.1116 62.8842 27.8449 64.5804 27.0429 66.0425C26.2407 67.5047 24.9535 68.6413 23.4031 69.2564C21.8526 69.8715 20.1361 69.9265 18.5495 69.4119C16.9628 68.8973 15.6055 67.8454 14.7114 66.4376C13.8173 65.0298 13.4426 63.3542 13.6518 61.6997C13.8609 60.0452 14.6409 58.5156 15.8573 57.3744C15.116 54.7939 14.7277 52.125 14.7028 49.4403C12.8773 50.4649 11.1505 51.6565 9.54491 52.9996C5.89526 56.0899 3.80231 59.4817 3.80231 62.3076V70.4018C3.80331 70.6079 3.88564 70.8053 4.03138 70.951C4.17713 71.0967 4.37452 71.179 4.58068 71.18H70.4193C70.6254 71.179 70.8229 71.0967 70.9686 70.951ZM22.6267 59.8002C22.0702 59.4292 21.416 59.2315 20.747 59.2323C19.8509 59.2333 18.9917 59.5899 18.3584 60.2238C17.725 60.8576 17.3693 61.717 17.3693 62.6129C17.3693 63.2817 17.5677 63.9355 17.9394 64.4915C18.3111 65.0475 18.8395 65.4808 19.4576 65.7366C20.0757 65.9924 20.7558 66.0591 21.4119 65.9284C22.0679 65.7976 22.6704 65.4753 23.1432 65.0021C23.616 64.5289 23.9377 63.9262 24.0677 63.2702C24.1978 62.6142 24.1303 61.9343 23.8738 61.3166C23.6173 60.699 23.1833 60.1712 22.6267 59.8002Z" stroke="#EFF9FB" stroke-width="0.6" mask="url(#path-1-inside-1_189_812)"/>
<defs>
<linearGradient id="paint0_linear_189_812" x1="37.5" y1="0" x2="37.5" y2="75" gradientUnits="userSpaceOnUse">
<stop stop-color="#00858A"/>
<stop offset="1" stop-color="#0C51A3"/>
</linearGradient>
<linearGradient id="paint1_linear_189_812" x1="37.5" y1="0" x2="37.5" y2="75" gradientUnits="userSpaceOnUse">
<stop stop-color="#00858A"/>
<stop offset="1" stop-color="#0C51A3"/>
</linearGradient>
</defs>
</svg>
