<svg width="75" height="75" viewBox="0 0 75 75" fill="none" xmlns="http://www.w3.org/2000/svg">
<path fill-rule="evenodd" clip-rule="evenodd" d="M37.0361 75C28.4731 75.0069 20.1728 72.0045 13.5497 66.5043C6.92666 61.0042 2.39085 53.3469 0.715344 44.8374C-0.960113 36.3279 0.328464 27.493 4.36139 19.8385C8.39437 12.1839 14.9221 6.18347 22.8321 2.85987C30.7421 -0.463734 39.5447 -0.904791 47.7396 1.61186C55.9346 4.1285 63.0146 9.44712 67.7731 16.6612C72.5316 23.8753 74.674 32.5382 73.8351 41.1737C72.9962 49.8092 69.228 57.8826 63.1727 64.018C59.7412 67.498 55.6669 70.259 51.1823 72.1433C46.6978 74.0276 41.8909 74.9983 37.0361 75ZM35.3691 5.64639C31.5505 9.37176 28.4328 13.1483 26.0278 16.9585C29.1474 17.819 32.259 18.3105 35.3691 18.4329V5.64639ZM35.3691 35.8396V21.7339C31.6117 21.5504 27.9002 20.9416 24.3017 19.9277C21.6157 24.979 20.1771 30.0812 20.0133 35.1943C20.0058 35.4092 20.0006 35.6242 19.9976 35.8396H35.3691ZM32.4543 3.76998C28.461 7.74154 25.2086 11.7934 22.7158 15.9073C20.0037 14.9344 17.2838 13.6836 14.5518 12.1551C14.9168 11.8239 15.2896 11.5003 15.6699 11.1845C20.5041 7.17014 26.3205 4.61848 32.4543 3.76998ZM21.0476 18.8893C17.9398 17.779 14.9358 16.3584 12.0816 14.6412C8.00333 19.1937 5.19338 24.8044 3.99417 30.895C3.67141 32.5343 3.46955 34.1868 3.38672 35.8396H16.66C16.6631 35.6243 16.6681 35.4092 16.6752 35.1943C16.83 29.6896 18.3011 24.2414 21.0476 18.8893ZM49.7259 19.8702C46.1446 20.8966 42.4496 21.5215 38.7072 21.7248V35.8396H54.0582C54.0564 35.707 54.0537 35.5746 54.0502 35.4422C54.0481 35.3595 54.0455 35.2768 54.0427 35.1943C53.8859 30.0618 52.4348 24.9403 49.7259 19.8702ZM38.7072 18.4226C41.7998 18.2817 44.8934 17.7759 47.9946 16.905C45.5965 13.1205 42.4956 9.36925 38.7072 5.66841V18.4226ZM57.3929 35.1943C57.2392 29.6684 55.7581 24.1918 52.9848 18.8139C56.0634 17.698 59.0385 16.2771 61.8655 14.565C66.7558 19.9907 69.7962 26.8843 70.51 34.2246C70.5623 34.7629 70.602 35.3014 70.6289 35.8396H57.4084C57.4067 35.7252 57.4045 35.6109 57.4017 35.4967C57.3992 35.3958 57.3963 35.295 57.3929 35.1943ZM51.311 15.8358C53.9952 14.859 56.6868 13.6098 59.39 12.0883C54.3883 7.57668 48.1858 4.69203 41.5902 3.77389C45.5746 7.71631 48.8202 11.7444 51.311 15.8358ZM20.1306 39.2221H35.3691V53.3408C31.9692 53.4682 28.57 53.9957 25.175 54.9233C22.2888 49.5761 20.6009 44.3333 20.1306 39.2221ZM23.5624 58.8784C26.0413 63.0271 29.1846 67.2184 32.9881 71.4391C29.9592 71.0701 26.9729 70.2829 24.1147 69.0821C20.5671 67.5917 17.3252 65.5094 14.5102 62.9467C17.5407 61.2501 20.556 59.894 23.5624 58.8784ZM21.9131 55.9382C18.9411 50.2686 17.2247 44.6852 16.7757 39.2221H3.38291C3.62254 44.2284 4.94973 49.1551 7.31117 53.6369C8.62594 56.1323 10.2322 58.4344 12.0833 60.5004C15.3525 58.6049 18.6303 57.0841 21.9131 55.9382ZM26.8936 57.8916C29.1643 61.5664 31.9916 65.2875 35.3691 69.0463V56.6392C32.5461 56.754 29.7226 57.1715 26.8936 57.8916ZM38.7072 56.6445V69.061C42.0785 65.3067 44.9003 61.5898 47.167 57.9181C44.3416 57.1925 41.5235 56.768 38.7072 56.6445ZM50.4887 58.9086C48.0127 63.0454 44.8752 67.2244 41.0803 71.4327C42.9985 71.1958 44.9033 70.7907 46.7734 70.2163C51.5185 68.7588 55.8526 66.2686 59.4926 62.9585C56.4767 61.2731 53.4775 59.9232 50.4887 58.9086ZM61.9239 60.5099C58.6712 58.6231 55.4103 57.1071 52.1442 55.9621C55.1251 50.2843 56.8452 44.6929 57.2936 39.2221H70.6329C70.3387 45.3696 68.4061 51.3558 64.9973 56.5245C64.0668 57.9354 63.0387 59.2665 61.9239 60.5099ZM48.8872 54.9435C45.4968 54.0114 42.1023 53.4783 38.7072 53.3442V39.2221H53.9254C53.456 44.3446 51.7707 49.5932 48.8872 54.9435Z" fill="url(#paint0_linear_464_263)"/>
<defs>
<linearGradient id="paint0_linear_464_263" x1="37.0066" y1="0" x2="37.0066" y2="75" gradientUnits="userSpaceOnUse">
<stop stop-color="#00858A"/>
<stop offset="1" stop-color="#0C51A3"/>
</linearGradient>
</defs>
</svg>
