<svg width="72" height="75" viewBox="0 0 72 75" fill="none" xmlns="http://www.w3.org/2000/svg">
<path fill-rule="evenodd" clip-rule="evenodd" d="M49.7026 43.8295C49.931 44.1316 50.0302 44.5108 49.9787 44.8849C49.9292 45.2052 49.7738 45.5001 49.5368 45.723L43.632 51.43L45.0242 59.4921C45.0874 59.8085 45.0405 60.1367 44.8912 60.4232C44.7694 60.6549 44.5865 60.8495 44.362 60.9862C44.1375 61.1229 43.8798 61.1964 43.6164 61.1992C43.3835 61.1996 43.1539 61.1437 42.9477 61.0362L35.6273 57.2186L28.3031 61.0362C28.0642 61.1641 27.7936 61.2217 27.523 61.2024C27.2523 61.1831 26.9927 61.0876 26.7748 60.9272C26.5568 60.7668 26.3895 60.548 26.2924 60.2966C26.1954 60.0451 26.1725 59.7715 26.2266 59.5076L27.6188 51.4456L21.6944 45.7191C21.4997 45.532 21.3623 45.2941 21.2982 45.0328C21.2341 44.7715 21.2459 44.4975 21.3323 44.2426C21.4186 43.9877 21.5759 43.7622 21.786 43.5924C21.9961 43.4224 22.2504 43.3151 22.5195 43.2826L30.6767 42.1187L34.3369 34.7472C34.5068 34.4094 34.8039 34.1516 35.164 34.0296C35.5241 33.9076 35.9182 33.9313 36.2608 34.0955C36.5525 34.2419 36.7865 34.4809 36.9256 34.7744L40.5741 42.1071L48.7586 43.271C49.135 43.3267 49.4742 43.5274 49.7026 43.8295ZM40.7343 50.5112C40.8024 50.2916 40.9231 50.0917 41.0863 49.9286L45.4621 45.6764L39.4127 44.8113C39.1829 44.7782 38.9647 44.6903 38.7767 44.5551C38.5887 44.42 38.4366 44.2416 38.3334 44.0353L35.6273 38.6037L32.9174 44.0353C32.8142 44.2416 32.6621 44.42 32.4741 44.5551C32.2861 44.6903 32.0678 44.7782 31.8381 44.8113L25.7847 45.6842L30.1645 49.9208C30.3306 50.0824 30.4551 50.2814 30.5273 50.5009C30.5994 50.7204 30.6172 50.954 30.5789 51.1817L29.5427 57.1643L34.9587 54.3398C35.1643 54.2328 35.3931 54.1768 35.6254 54.1768C35.8576 54.1768 36.0864 54.2328 36.2921 54.3398L41.7276 57.172L40.6953 51.1895C40.6528 50.9636 40.6661 50.7309 40.7343 50.5112Z" fill="url(#paint0_linear_189_793)"/>
<path fill-rule="evenodd" clip-rule="evenodd" d="M70.7235 0.00049044C70.945 -0.00576106 71.164 0.0478503 71.357 0.155689C71.504 0.239231 71.6327 0.350858 71.7358 0.484176C71.8389 0.617447 71.9142 0.769709 71.9575 0.932153C72.0008 1.09455 72.0111 1.26391 71.9879 1.43028C71.9647 1.59671 71.9085 1.75692 71.8223 1.90156L54.7846 30.3709C55.2773 30.8908 55.7543 31.4224 56.2041 31.9771C60.0059 36.6652 62.0759 42.5031 62.0697 48.5202C62.0686 52.814 61.0153 57.0431 59.0007 60.8432C56.986 64.6434 54.0704 67.9006 50.505 70.3343C46.9396 72.7681 42.8312 74.3053 38.5339 74.8137C34.2366 75.3221 29.8791 74.7863 25.8369 73.2525C21.7946 71.7188 18.1888 69.233 15.3301 66.0094C12.4713 62.7857 10.4453 58.9209 9.42665 54.7478C8.40794 50.5747 8.42708 46.2185 9.48241 42.0543C10.5377 37.8902 12.5976 34.043 15.4846 30.8442C15.8874 30.3981 16.3097 29.9675 16.7398 29.5484L0.175196 1.90156C0.0897985 1.75654 0.0341396 1.59618 0.0115133 1.42971C-0.0111131 1.26325 -0.000324976 1.09398 0.0433047 0.931679C0.0869344 0.769377 0.162499 0.617257 0.265702 0.484034C0.368857 0.350858 0.497598 0.239279 0.644478 0.155689C0.836277 0.0483712 1.0539 -0.00528746 1.27405 0.00049044H20.0012C20.2231 0.00129556 20.441 0.0597376 20.633 0.169991C20.8251 0.280292 20.9848 0.438521 21.0961 0.62905L33.5665 22.0683H33.6017C34.0826 22.0373 34.5637 22.0102 35.0525 22.0102H35.3692C36.0379 22.0102 36.6988 22.0373 37.3518 22.0838C37.6959 22.111 38.0401 22.1459 38.3803 22.1847L50.9132 0.62905C51.0245 0.438521 51.1842 0.280292 51.3763 0.169991C51.5684 0.0597376 51.7862 0.00129556 52.0082 0.00049044H70.7235ZM19.309 3.28665H4.87947L19.3012 27.368C22.5918 24.9028 26.4153 23.2305 30.4694 22.4835L19.309 3.28665ZM55.0279 61.3082C57.5428 57.5097 58.884 53.0649 58.8866 48.5202C58.8959 43.2161 57.0758 38.0685 53.7288 33.9325C53.1055 33.1622 52.4342 32.4314 51.7188 31.7444C48.0581 28.2311 43.3447 25.9951 38.2903 25.3738C37.8992 25.3234 37.5082 25.2885 37.1171 25.2575C36.5423 25.2148 35.9558 25.1954 35.3692 25.1954H35.0916C34.6614 25.198 34.2352 25.2135 33.8128 25.2419C29.2425 25.5459 24.8612 27.1684 21.2078 29.9099C17.5544 32.6514 14.7882 36.3924 13.2492 40.6729C11.7102 44.9534 11.4656 49.5868 12.5454 54.0034C13.6252 58.42 15.9824 62.4272 19.3271 65.5324C22.6718 68.6376 26.8582 70.7054 31.3715 71.4814C35.8849 72.2575 40.5285 71.7081 44.7313 69.9007C48.9342 68.0933 52.5131 65.1067 55.0279 61.3082ZM41.798 22.8132C45.7789 23.7927 49.478 25.6715 52.6065 28.303L67.5717 3.28665H53.1383L41.798 22.8132Z" fill="url(#paint1_linear_189_793)"/>
<defs>
<linearGradient id="paint0_linear_189_793" x1="36" y1="0" x2="36" y2="75" gradientUnits="userSpaceOnUse">
<stop stop-color="#00858A"/>
<stop offset="1" stop-color="#0C51A3"/>
</linearGradient>
<linearGradient id="paint1_linear_189_793" x1="36" y1="0" x2="36" y2="75" gradientUnits="userSpaceOnUse">
<stop stop-color="#00858A"/>
<stop offset="1" stop-color="#0C51A3"/>
</linearGradient>
</defs>
</svg>
