<svg width="75" height="75" viewBox="0 0 75 75" fill="none" xmlns="http://www.w3.org/2000/svg">
<mask id="path-1-inside-1_464_276" fill="white">
<path fill-rule="evenodd" clip-rule="evenodd" d="M71.1206 30.0646H63.7661V71.0398H71.1206V30.0646ZM43.0765 58.1088H31.883V71.0802H43.0765V58.1088ZM11.1934 30.0646H3.8389V71.0398H11.1934V30.0646ZM28.0037 71.0802V56.5328H28.0441C28.0441 55.4013 28.6503 54.2699 29.7817 54.2699H45.1777C46.3092 54.2699 46.9153 55.3609 46.9153 56.5328V71.0802H59.8868V11.355H52.5323V23.5991C52.5323 26.3874 51.4008 28.6503 48.7742 29.6605C47.1281 30.286 37.1137 30.1605 31.689 30.0926H31.6889H31.6889H31.6889H31.6888H31.6887C30.4551 30.0771 29.4588 30.0646 28.8523 30.0646C24.9326 30.0646 22.3868 27.8421 22.3868 23.5991V11.355H15.0323V71.0802H28.0037ZM26.2661 6.10182V23.9628C26.2661 25.4579 27.0339 26.2257 28.5291 26.2257H46.39C47.8852 26.2257 48.653 25.4579 48.653 23.9628V6.10182C48.653 4.60667 47.8852 3.8389 46.39 3.8389H28.5291C27.0339 3.8389 26.2661 4.60667 26.2661 6.10182ZM22.4272 7.51615V6.46551H22.4676C22.4676 2.38416 24.8518 0 28.9332 0H46.1072C51.4008 0 52.5727 3.35398 52.5727 7.51615H61.8668C62.5134 7.51615 63.0791 7.92025 63.362 8.32434C63.6853 8.76885 63.8065 9.4154 63.8065 10.1428V26.2661H73.2623C74.3938 26.2661 74.9999 27.3572 74.9999 28.5291V72.4945C74.9999 74.0301 74.0705 74.9595 72.5349 74.9595H2.46498C0.929417 74.9595 0 74.0301 0 72.4945V28.5291C0 27.3976 0.606141 26.2661 1.73761 26.2661H11.1934V10.1428C11.1934 8.76885 11.7996 7.51615 13.1331 7.51615H22.4272ZM35.5603 13.0522V9.37496C35.5603 8.32431 36.4897 7.4353 37.4999 7.4353C39.6241 7.4353 39.5406 9.8172 39.4661 11.9458C39.4527 12.3279 39.4396 12.7017 39.4396 13.0522C39.79 13.0522 40.1639 13.0391 40.5459 13.0257L40.546 13.0257C42.6746 12.9512 45.0565 12.8677 45.0565 14.9919C45.0565 17.116 42.6746 17.0326 40.5459 16.958C40.1639 16.9446 39.7901 16.9315 39.4396 16.9315C39.4396 17.282 39.4527 17.6559 39.4661 18.0379C39.5406 20.1665 39.6241 22.5484 37.4999 22.5484C35.3758 22.5484 35.4592 20.1665 35.5338 18.0379C35.5472 17.6559 35.5603 17.282 35.5603 16.9315C35.2098 16.9315 34.8359 16.9446 34.4539 16.958C32.3253 17.0326 29.9434 17.116 29.9434 14.9919C29.9434 12.8677 32.3253 12.9512 34.4539 13.0257L34.4539 13.0257C34.836 13.0391 35.2098 13.0522 35.5603 13.0522ZM24.3668 39.3183C24.7532 39.3183 25.1611 39.3337 25.5739 39.3493C27.7515 39.4315 30.0645 39.5188 30.0645 37.3787C30.0645 35.258 27.7193 35.3377 25.5287 35.4122H25.5285H25.5284H25.5283H25.5282H25.528C25.1309 35.4257 24.7388 35.439 24.3668 35.439C21.9422 35.439 21.9422 39.2779 24.3668 39.2779V39.3183ZM47.9609 39.3493C47.5481 39.3337 47.1401 39.3183 46.7537 39.3183V39.2779C44.3292 39.2779 44.3292 35.439 46.7537 35.439C47.1258 35.439 47.5179 35.4257 47.9151 35.4122H47.9152H47.9154H47.9155H47.9156C50.1062 35.3377 52.4515 35.258 52.4515 37.3787C52.4515 39.5188 50.1384 39.4315 47.9609 39.3493ZM35.5601 39.3183C35.9465 39.3183 36.3545 39.3337 36.7673 39.3493C38.9448 39.4315 41.2579 39.5188 41.2579 37.3787C41.2579 35.258 38.9126 35.3377 36.722 35.4122H36.7219H36.7218H36.7216C36.3244 35.4257 35.9323 35.439 35.5601 35.439C33.1356 35.439 33.1356 39.2779 35.5601 39.2779V39.3183ZM50.7947 48.6126H46.6325C44.4504 48.6126 44.0867 44.7737 47.3195 44.7737H50.1077C53.3001 44.7737 52.9364 48.6126 50.7947 48.6126ZM24.2053 48.6126H28.3674C30.5091 48.6126 30.8728 44.7737 27.6805 44.7737H24.8922C21.6595 44.7737 22.0232 48.6126 24.2053 48.6126ZM39.6011 48.6126H35.4389C33.2568 48.6126 32.8931 44.7737 36.1259 44.7737H38.9141C42.1065 44.7737 41.7428 48.6126 39.6011 48.6126Z"/>
</mask>
<path fill-rule="evenodd" clip-rule="evenodd" d="M71.1206 30.0646H63.7661V71.0398H71.1206V30.0646ZM43.0765 58.1088H31.883V71.0802H43.0765V58.1088ZM11.1934 30.0646H3.8389V71.0398H11.1934V30.0646ZM28.0037 71.0802V56.5328H28.0441C28.0441 55.4013 28.6503 54.2699 29.7817 54.2699H45.1777C46.3092 54.2699 46.9153 55.3609 46.9153 56.5328V71.0802H59.8868V11.355H52.5323V23.5991C52.5323 26.3874 51.4008 28.6503 48.7742 29.6605C47.1281 30.286 37.1137 30.1605 31.689 30.0926H31.6889H31.6889H31.6889H31.6888H31.6887C30.4551 30.0771 29.4588 30.0646 28.8523 30.0646C24.9326 30.0646 22.3868 27.8421 22.3868 23.5991V11.355H15.0323V71.0802H28.0037ZM26.2661 6.10182V23.9628C26.2661 25.4579 27.0339 26.2257 28.5291 26.2257H46.39C47.8852 26.2257 48.653 25.4579 48.653 23.9628V6.10182C48.653 4.60667 47.8852 3.8389 46.39 3.8389H28.5291C27.0339 3.8389 26.2661 4.60667 26.2661 6.10182ZM22.4272 7.51615V6.46551H22.4676C22.4676 2.38416 24.8518 0 28.9332 0H46.1072C51.4008 0 52.5727 3.35398 52.5727 7.51615H61.8668C62.5134 7.51615 63.0791 7.92025 63.362 8.32434C63.6853 8.76885 63.8065 9.4154 63.8065 10.1428V26.2661H73.2623C74.3938 26.2661 74.9999 27.3572 74.9999 28.5291V72.4945C74.9999 74.0301 74.0705 74.9595 72.5349 74.9595H2.46498C0.929417 74.9595 0 74.0301 0 72.4945V28.5291C0 27.3976 0.606141 26.2661 1.73761 26.2661H11.1934V10.1428C11.1934 8.76885 11.7996 7.51615 13.1331 7.51615H22.4272ZM35.5603 13.0522V9.37496C35.5603 8.32431 36.4897 7.4353 37.4999 7.4353C39.6241 7.4353 39.5406 9.8172 39.4661 11.9458C39.4527 12.3279 39.4396 12.7017 39.4396 13.0522C39.79 13.0522 40.1639 13.0391 40.5459 13.0257L40.546 13.0257C42.6746 12.9512 45.0565 12.8677 45.0565 14.9919C45.0565 17.116 42.6746 17.0326 40.5459 16.958C40.1639 16.9446 39.7901 16.9315 39.4396 16.9315C39.4396 17.282 39.4527 17.6559 39.4661 18.0379C39.5406 20.1665 39.6241 22.5484 37.4999 22.5484C35.3758 22.5484 35.4592 20.1665 35.5338 18.0379C35.5472 17.6559 35.5603 17.282 35.5603 16.9315C35.2098 16.9315 34.8359 16.9446 34.4539 16.958C32.3253 17.0326 29.9434 17.116 29.9434 14.9919C29.9434 12.8677 32.3253 12.9512 34.4539 13.0257L34.4539 13.0257C34.836 13.0391 35.2098 13.0522 35.5603 13.0522ZM24.3668 39.3183C24.7532 39.3183 25.1611 39.3337 25.5739 39.3493C27.7515 39.4315 30.0645 39.5188 30.0645 37.3787C30.0645 35.258 27.7193 35.3377 25.5287 35.4122H25.5285H25.5284H25.5283H25.5282H25.528C25.1309 35.4257 24.7388 35.439 24.3668 35.439C21.9422 35.439 21.9422 39.2779 24.3668 39.2779V39.3183ZM47.9609 39.3493C47.5481 39.3337 47.1401 39.3183 46.7537 39.3183V39.2779C44.3292 39.2779 44.3292 35.439 46.7537 35.439C47.1258 35.439 47.5179 35.4257 47.9151 35.4122H47.9152H47.9154H47.9155H47.9156C50.1062 35.3377 52.4515 35.258 52.4515 37.3787C52.4515 39.5188 50.1384 39.4315 47.9609 39.3493ZM35.5601 39.3183C35.9465 39.3183 36.3545 39.3337 36.7673 39.3493C38.9448 39.4315 41.2579 39.5188 41.2579 37.3787C41.2579 35.258 38.9126 35.3377 36.722 35.4122H36.7219H36.7218H36.7216C36.3244 35.4257 35.9323 35.439 35.5601 35.439C33.1356 35.439 33.1356 39.2779 35.5601 39.2779V39.3183ZM50.7947 48.6126H46.6325C44.4504 48.6126 44.0867 44.7737 47.3195 44.7737H50.1077C53.3001 44.7737 52.9364 48.6126 50.7947 48.6126ZM24.2053 48.6126H28.3674C30.5091 48.6126 30.8728 44.7737 27.6805 44.7737H24.8922C21.6595 44.7737 22.0232 48.6126 24.2053 48.6126ZM39.6011 48.6126H35.4389C33.2568 48.6126 32.8931 44.7737 36.1259 44.7737H38.9141C42.1065 44.7737 41.7428 48.6126 39.6011 48.6126Z" fill="url(#paint0_linear_464_276)"/>
<path d="M63.7661 30.0646V29.8646H63.5661V30.0646H63.7661ZM71.1206 30.0646H71.3206V29.8646H71.1206V30.0646ZM63.7661 71.0398H63.5661V71.2398H63.7661V71.0398ZM71.1206 71.0398V71.2398H71.3206V71.0398H71.1206ZM31.883 58.1088V57.9088H31.683V58.1088H31.883ZM43.0765 58.1088H43.2765V57.9088H43.0765V58.1088ZM31.883 71.0802H31.683V71.2802H31.883V71.0802ZM43.0765 71.0802V71.2802H43.2765V71.0802H43.0765ZM3.8389 30.0646V29.8646H3.6389V30.0646H3.8389ZM11.1934 30.0646H11.3934V29.8646H11.1934V30.0646ZM3.8389 71.0398H3.6389V71.2398H3.8389V71.0398ZM11.1934 71.0398V71.2398H11.3934V71.0398H11.1934ZM28.0037 56.5328V56.3328H27.8037V56.5328H28.0037ZM28.0037 71.0802V71.2802H28.2037V71.0802H28.0037ZM28.0441 56.5328V56.7328H28.2441V56.5328H28.0441ZM46.9153 71.0802H46.7153V71.2802H46.9153V71.0802ZM59.8868 71.0802V71.2802H60.0868V71.0802H59.8868ZM59.8868 11.355H60.0868V11.155H59.8868V11.355ZM52.5323 11.355V11.155H52.3323V11.355H52.5323ZM48.7742 29.6605L48.8452 29.8475L48.846 29.8472L48.7742 29.6605ZM31.689 30.0926L31.6915 29.8926H31.689V30.0926ZM31.6887 30.0926L31.6862 30.2926H31.6887V30.0926ZM22.3868 11.355H22.5868V11.155H22.3868V11.355ZM15.0323 11.355V11.155H14.8323V11.355H15.0323ZM15.0323 71.0802H14.8323V71.2802H15.0323V71.0802ZM22.4272 6.46551V6.26551H22.2272V6.46551H22.4272ZM22.4272 7.51615V7.71615H22.6272V7.51615H22.4272ZM22.4676 6.46551V6.66551H22.6676V6.46551H22.4676ZM52.5727 7.51615H52.3727V7.71615H52.5727V7.51615ZM63.362 8.32434L63.1981 8.43905L63.2002 8.44198L63.362 8.32434ZM63.8065 26.2661H63.6065V26.4661H63.8065V26.2661ZM11.1934 26.2661V26.4661H11.3934V26.2661H11.1934ZM35.5603 13.0522V13.2522H35.7603V13.0522H35.5603ZM39.4661 11.9458L39.6659 11.9528V11.9528L39.4661 11.9458ZM39.4396 13.0522H39.2396V13.2522H39.4396V13.0522ZM40.5459 13.0257L40.5529 13.2256L40.5559 13.2255L40.5459 13.0257ZM40.546 13.0257L40.5389 12.8258L40.536 12.826L40.546 13.0257ZM40.5459 16.958L40.553 16.7581L40.5459 16.958ZM39.4396 16.9315V16.7315H39.2396V16.9315H39.4396ZM39.4661 18.0379L39.6659 18.0309V18.0309L39.4661 18.0379ZM35.5338 18.0379L35.3339 18.0309V18.0309L35.5338 18.0379ZM35.5603 16.9315H35.7603V16.7315H35.5603V16.9315ZM34.4539 16.958L34.4469 16.7581L34.4539 16.958ZM34.4539 13.0257L34.4639 12.826L34.4609 12.8259L34.4539 13.0257ZM34.4539 13.0257L34.444 13.2255L34.4469 13.2256L34.4539 13.0257ZM25.5739 39.3493L25.5664 39.5492L25.5739 39.3493ZM24.3668 39.3183H24.1668V39.5183H24.3668V39.3183ZM25.5287 35.4122V35.6123L25.5354 35.6121L25.5287 35.4122ZM25.528 35.4122V35.2121L25.5212 35.2123L25.528 35.4122ZM24.3668 39.2779H24.5668V39.0779H24.3668V39.2779ZM46.7537 39.3183H46.5537V39.5183H46.7537V39.3183ZM47.9609 39.3493L47.9533 39.5492L47.9609 39.3493ZM46.7537 39.2779H46.9537V39.0779H46.7537V39.2779ZM47.9151 35.4122V35.2121L47.9083 35.2123L47.9151 35.4122ZM47.9156 35.4122V35.6123L47.9224 35.6121L47.9156 35.4122ZM36.7673 39.3493L36.7597 39.5492L36.7673 39.3493ZM35.5601 39.3183H35.3601V39.5183H35.5601V39.3183ZM36.722 35.4122V35.6123L36.7288 35.6121L36.722 35.4122ZM36.7216 35.4122V35.2121L36.7148 35.2123L36.7216 35.4122ZM35.5601 39.2779H35.7601V39.0779H35.5601V39.2779ZM63.7661 30.2646H71.1206V29.8646H63.7661V30.2646ZM63.9661 71.0398V30.0646H63.5661V71.0398H63.9661ZM71.1206 70.8398H63.7661V71.2398H71.1206V70.8398ZM70.9206 30.0646V71.0398H71.3206V30.0646H70.9206ZM31.883 58.3088H43.0765V57.9088H31.883V58.3088ZM32.083 71.0802V58.1088H31.683V71.0802H32.083ZM43.0765 70.8802H31.883V71.2802H43.0765V70.8802ZM42.8765 58.1088V71.0802H43.2765V58.1088H42.8765ZM3.8389 30.2646H11.1934V29.8646H3.8389V30.2646ZM4.0389 71.0398V30.0646H3.6389V71.0398H4.0389ZM11.1934 70.8398H3.8389V71.2398H11.1934V70.8398ZM10.9934 30.0646V71.0398H11.3934V30.0646H10.9934ZM27.8037 56.5328V71.0802H28.2037V56.5328H27.8037ZM28.0441 56.3328H28.0037V56.7328H28.0441V56.3328ZM29.7817 54.0699C29.1395 54.0699 28.6478 54.3945 28.3241 54.8634C28.0038 55.3273 27.8441 55.9347 27.8441 56.5328H28.2441C28.2441 55.9994 28.3876 55.4754 28.6532 55.0907C28.9154 54.7109 29.2925 54.4699 29.7817 54.4699V54.0699ZM45.1777 54.0699H29.7817V54.4699H45.1777V54.0699ZM47.1153 56.5328C47.1153 55.9156 46.9562 55.3073 46.6348 54.8473C46.3095 54.3818 45.8172 54.0699 45.1777 54.0699V54.4699C45.6697 54.4699 46.0462 54.7034 46.3069 55.0764C46.5714 55.4549 46.7153 55.9781 46.7153 56.5328H47.1153ZM47.1153 71.0802V56.5328H46.7153V71.0802H47.1153ZM59.8868 70.8802H46.9153V71.2802H59.8868V70.8802ZM59.6868 11.355V71.0802H60.0868V11.355H59.6868ZM52.5323 11.555H59.8868V11.155H52.5323V11.555ZM52.7323 23.5991V11.355H52.3323V23.5991H52.7323ZM48.846 29.8472C50.1997 29.3265 51.1756 28.4791 51.8107 27.3979C52.4442 26.3193 52.7323 25.0193 52.7323 23.5991H52.3323C52.3323 24.9672 52.0546 26.1927 51.4658 27.1953C50.8784 28.1952 49.9752 28.9843 48.7024 29.4739L48.846 29.8472ZM31.6865 30.2925C34.3984 30.3265 38.2606 30.3749 41.6508 30.3366C43.3457 30.3174 44.9251 30.2765 46.185 30.2011C46.8148 30.1634 47.3671 30.1169 47.8152 30.0599C48.2585 30.0034 48.6155 29.9348 48.8452 29.8475L48.7031 29.4736C48.5213 29.5427 48.2053 29.6069 47.7647 29.6631C47.3289 29.7186 46.7864 29.7644 46.1611 29.8018C44.9107 29.8767 43.3388 29.9175 41.6463 29.9366C38.2616 29.9749 34.4043 29.9266 31.6915 29.8926L31.6865 30.2925ZM31.6889 30.2926H31.689V29.8926H31.6889V30.2926ZM31.6889 30.2926H31.6889V29.8926H31.6889V30.2926ZM31.6889 30.2926H31.6889V29.8926H31.6889V30.2926ZM31.6888 30.2926H31.6889V29.8926H31.6888V30.2926ZM31.6887 30.2926H31.6888V29.8926H31.6887V30.2926ZM28.8523 30.2646C29.4572 30.2646 30.4519 30.2771 31.6862 30.2925L31.6912 29.8926C30.4583 29.8771 29.4604 29.8646 28.8523 29.8646V30.2646ZM22.1868 23.5991C22.1868 25.7611 22.8364 27.4347 24.0109 28.567C25.1841 29.6981 26.8556 30.2646 28.8523 30.2646V29.8646C26.9293 29.8646 25.3681 29.3199 24.2885 28.279C23.2101 27.2393 22.5868 25.6801 22.5868 23.5991H22.1868ZM22.1868 11.355V23.5991H22.5868V11.355H22.1868ZM15.0323 11.555H22.3868V11.155H15.0323V11.555ZM15.2323 71.0802V11.355H14.8323V71.0802H15.2323ZM28.0037 70.8802H15.0323V71.2802H28.0037V70.8802ZM26.4661 23.9628V6.10182H26.0661V23.9628H26.4661ZM28.5291 26.0257C27.8137 26.0257 27.3071 25.8423 26.9783 25.5135C26.6495 25.1847 26.4661 24.6782 26.4661 23.9628H26.0661C26.0661 24.7425 26.2666 25.3675 26.6955 25.7964C27.1244 26.2252 27.7493 26.4257 28.5291 26.4257V26.0257ZM46.39 26.0257H28.5291V26.4257H46.39V26.0257ZM48.453 23.9628C48.453 24.6782 48.2695 25.1847 47.9408 25.5135C47.612 25.8423 47.1054 26.0257 46.39 26.0257V26.4257C47.1698 26.4257 47.7947 26.2252 48.2236 25.7964C48.6525 25.3675 48.853 24.7425 48.853 23.9628H48.453ZM48.453 6.10182V23.9628H48.853V6.10182H48.453ZM46.39 4.0389C47.1054 4.0389 47.612 4.22232 47.9408 4.5511C48.2695 4.87988 48.453 5.38643 48.453 6.10182H48.853C48.853 5.32207 48.6525 4.69715 48.2236 4.26826C47.7947 3.83937 47.1698 3.6389 46.39 3.6389V4.0389ZM28.5291 4.0389H46.39V3.6389H28.5291V4.0389ZM26.4661 6.10182C26.4661 5.38643 26.6495 4.87988 26.9783 4.5511C27.3071 4.22232 27.8137 4.0389 28.5291 4.0389V3.6389C27.7493 3.6389 27.1244 3.83937 26.6955 4.26826C26.2666 4.69715 26.0661 5.32207 26.0661 6.10182H26.4661ZM22.2272 6.46551V7.51615H22.6272V6.46551H22.2272ZM22.4676 6.26551H22.4272V6.66551H22.4676V6.26551ZM28.9332 -0.2C26.8537 -0.2 25.1812 0.40808 24.0285 1.56083C22.8757 2.71357 22.2676 4.38609 22.2676 6.46551H22.6676C22.6676 4.46357 23.2516 2.90334 24.3113 1.84367C25.371 0.783998 26.9312 0.2 28.9332 0.2V-0.2ZM46.1072 -0.2H28.9332V0.2H46.1072V-0.2ZM52.7727 7.51615C52.7727 5.42457 52.48 3.49323 51.4887 2.08228C50.4866 0.656078 48.7997 -0.2 46.1072 -0.2V0.2C48.7083 0.2 50.2541 1.02091 51.1614 2.31224C52.0794 3.61883 52.3727 5.44557 52.3727 7.51615H52.7727ZM61.8668 7.31615H52.5727V7.71615H61.8668V7.31615ZM63.5258 8.20965C63.2149 7.76545 62.5934 7.31615 61.8668 7.31615V7.71615C62.4334 7.71615 62.9434 8.07505 63.1981 8.43903L63.5258 8.20965ZM64.0065 10.1428C64.0065 9.40139 63.8845 8.70276 63.5237 8.20671L63.2002 8.44198C63.486 8.83493 63.6065 9.4294 63.6065 10.1428H64.0065ZM64.0065 26.2661V10.1428H63.6065V26.2661H64.0065ZM73.2623 26.0661H63.8065V26.4661H73.2623V26.0661ZM75.1999 28.5291C75.1999 27.9118 75.0408 27.3036 74.7193 26.8436C74.3941 26.3781 73.9018 26.0661 73.2623 26.0661V26.4661C73.7543 26.4661 74.1308 26.6997 74.3915 27.0727C74.656 27.4512 74.7999 27.9744 74.7999 28.5291H75.1999ZM75.1999 72.4945V28.5291H74.7999V72.4945H75.1999ZM72.5349 75.1595C73.3433 75.1595 74.0149 74.9141 74.4847 74.4443C74.9545 73.9744 75.1999 73.3028 75.1999 72.4945H74.7999C74.7999 73.2217 74.5806 73.7826 74.2018 74.1614C73.823 74.5402 73.2622 74.7595 72.5349 74.7595V75.1595ZM2.46498 75.1595H72.5349V74.7595H2.46498V75.1595ZM-0.2 72.4945C-0.2 73.3028 0.0454274 73.9744 0.515232 74.4443C0.985036 74.9141 1.65665 75.1595 2.46498 75.1595V74.7595C1.73774 74.7595 1.17687 74.5402 0.798075 74.1614C0.419281 73.7826 0.2 73.2217 0.2 72.4945H-0.2ZM-0.2 28.5291V72.4945H0.2V28.5291H-0.2ZM1.73761 26.0661C1.09537 26.0661 0.60365 26.3908 0.279924 26.8597C-0.0403918 27.3236 -0.2 27.931 -0.2 28.5291H0.2C0.2 27.9957 0.343463 27.4716 0.609083 27.0869C0.871294 26.7072 1.24838 26.4661 1.73761 26.4661V26.0661ZM11.1934 26.0661H1.73761V26.4661H11.1934V26.0661ZM10.9934 10.1428V26.2661H11.3934V10.1428H10.9934ZM13.1331 7.31615C12.3924 7.31615 11.8474 7.66892 11.496 8.20451C11.1499 8.73178 10.9934 9.43041 10.9934 10.1428H11.3934C11.3934 9.48121 11.54 8.86653 11.8304 8.42397C12.1153 7.98973 12.5402 7.71615 13.1331 7.71615V7.31615ZM22.4272 7.31615H13.1331V7.71615H22.4272V7.31615ZM35.3603 9.37496V13.0522H35.7603V9.37496H35.3603ZM37.4999 7.2353C36.3819 7.2353 35.3603 8.21119 35.3603 9.37496H35.7603C35.7603 8.43743 36.5975 7.6353 37.4999 7.6353V7.2353ZM39.6659 11.9528C39.7029 10.8987 39.7455 9.73679 39.5005 8.83963C39.3767 8.38673 39.1752 7.98222 38.8463 7.691C38.5139 7.39657 38.0709 7.2353 37.4999 7.2353V7.6353C37.9911 7.6353 38.3342 7.77177 38.5812 7.99046C38.8318 8.21238 39.003 8.53638 39.1146 8.94503C39.3402 9.77097 39.3038 10.8644 39.2662 11.9388L39.6659 11.9528ZM39.6396 13.0522C39.6396 12.7059 39.6525 12.3356 39.6659 11.9528L39.2662 11.9388C39.2528 12.3201 39.2396 12.6976 39.2396 13.0522H39.6396ZM40.5389 12.8259C40.1561 12.8393 39.7859 12.8522 39.4396 12.8522V13.2522C39.7942 13.2522 40.1717 13.239 40.5529 13.2256L40.5389 12.8259ZM40.536 12.826L40.5359 12.826L40.5559 13.2255L40.5559 13.2255L40.536 12.826ZM45.2565 14.9919C45.2565 14.4209 45.0952 13.9779 44.8008 13.6454C44.5096 13.3166 44.1051 13.1151 43.6522 12.9913C42.755 12.7463 41.5931 12.7889 40.5389 12.8259L40.553 13.2256C41.6274 13.188 42.7208 13.1516 43.5468 13.3772C43.9554 13.4888 44.2794 13.66 44.5013 13.9106C44.72 14.1576 44.8565 14.5007 44.8565 14.9919H45.2565ZM40.5389 17.1579C41.5931 17.1948 42.755 17.2375 43.6522 16.9924C44.1051 16.8687 44.5096 16.6671 44.8008 16.3383C45.0952 16.0058 45.2565 15.5628 45.2565 14.9919H44.8565C44.8565 15.483 44.72 15.8261 44.5013 16.0731C44.2794 16.3237 43.9554 16.4949 43.5468 16.6065C42.7208 16.8321 41.6274 16.7958 40.553 16.7581L40.5389 17.1579ZM39.4396 17.1315C39.7859 17.1315 40.1561 17.1445 40.5389 17.1579L40.553 16.7581C40.1717 16.7448 39.7942 16.7315 39.4396 16.7315V17.1315ZM39.6659 18.0309C39.6525 17.6481 39.6396 17.2779 39.6396 16.9315H39.2396C39.2396 17.2861 39.2528 17.6636 39.2662 18.0449L39.6659 18.0309ZM37.4999 22.7484C38.0709 22.7484 38.5139 22.5872 38.8463 22.2927C39.1752 22.0015 39.3767 21.597 39.5005 21.1441C39.7455 20.2469 39.7029 19.0851 39.6659 18.0309L39.2662 18.0449C39.3038 19.1194 39.3402 20.2128 39.1146 21.0387C39.003 21.4473 38.8318 21.7714 38.5812 21.9933C38.3342 22.212 37.9911 22.3484 37.4999 22.3484V22.7484ZM35.3339 18.0309C35.297 19.0851 35.2543 20.2469 35.4994 21.1441C35.6231 21.597 35.8247 22.0015 36.1535 22.2927C36.486 22.5872 36.929 22.7484 37.4999 22.7484V22.3484C37.0088 22.3484 36.6656 22.212 36.4187 21.9933C36.1681 21.7714 35.9969 21.4473 35.8853 21.0387C35.6596 20.2128 35.696 19.1194 35.7337 18.0449L35.3339 18.0309ZM35.3603 16.9315C35.3603 17.2779 35.3473 17.6481 35.3339 18.0309L35.7337 18.0449C35.747 17.6636 35.7603 17.2861 35.7603 16.9315H35.3603ZM34.4609 17.1579C34.8437 17.1445 35.2139 17.1315 35.5603 17.1315V16.7315C35.2056 16.7315 34.8281 16.7448 34.4469 16.7581L34.4609 17.1579ZM29.7434 14.9919C29.7434 15.5628 29.9046 16.0058 30.1991 16.3383C30.4903 16.6671 30.8948 16.8687 31.3477 16.9924C32.2449 17.2375 33.4067 17.1948 34.4609 17.1579L34.4469 16.7581C33.3724 16.7958 32.279 16.8321 31.4531 16.6065C31.0444 16.4949 30.7204 16.3237 30.4985 16.0731C30.2798 15.8261 30.1434 15.483 30.1434 14.9919H29.7434ZM34.4609 12.8259C33.4067 12.7889 32.2449 12.7463 31.3477 12.9913C30.8948 13.1151 30.4903 13.3166 30.1991 13.6454C29.9046 13.9779 29.7434 14.4209 29.7434 14.9919H30.1434C30.1434 14.5007 30.2798 14.1576 30.4985 13.9106C30.7204 13.66 31.0444 13.4888 31.4531 13.3772C32.279 13.1516 33.3724 13.188 34.4469 13.2256L34.4609 12.8259ZM34.4639 12.826L34.4639 12.826L34.4439 13.2255L34.444 13.2255L34.4639 12.826ZM35.5603 12.8522C35.214 12.8522 34.8437 12.8393 34.461 12.8259L34.4469 13.2256C34.8282 13.239 35.2057 13.2522 35.5603 13.2522V12.8522ZM25.5815 39.1495C25.1694 39.1339 24.7576 39.1183 24.3668 39.1183V39.5183C24.7487 39.5183 25.1528 39.5336 25.5664 39.5492L25.5815 39.1495ZM29.8645 37.3787C29.8645 37.8757 29.7312 38.2222 29.5175 38.4705C29.3011 38.722 28.9846 38.8933 28.5824 39.0046C27.7684 39.2299 26.6809 39.1909 25.5815 39.1495L25.5664 39.5492C26.6444 39.5899 27.8023 39.6356 28.6891 39.3901C29.1374 39.266 29.5353 39.063 29.8206 38.7315C30.1086 38.3969 30.2645 37.9517 30.2645 37.3787H29.8645ZM25.5354 35.6121C26.6412 35.5745 27.7407 35.5391 28.5652 35.7651C28.9729 35.8769 29.294 36.0481 29.5135 36.2982C29.7299 36.5448 29.8645 36.8877 29.8645 37.3787H30.2645C30.2645 36.8093 30.1059 36.3669 29.8142 36.0344C29.5254 35.7053 29.1234 35.5034 28.6709 35.3794C27.7751 35.1337 26.6067 35.1754 25.5219 35.2123L25.5354 35.6121ZM25.5285 35.6122H25.5287V35.2122H25.5285V35.6122ZM25.5284 35.6122H25.5285V35.2122H25.5284V35.6122ZM25.5283 35.6122H25.5284V35.2122H25.5283V35.6122ZM25.5282 35.6122H25.5283V35.2122H25.5282V35.6122ZM25.528 35.6122H25.5282V35.2122H25.528V35.6122ZM24.3668 35.639C24.7428 35.639 25.1384 35.6256 25.5348 35.6121L25.5212 35.2123C25.1234 35.2258 24.7348 35.239 24.3668 35.239V35.639ZM24.3668 39.0779C23.8188 39.0779 23.4205 38.8634 23.1559 38.5493C22.8876 38.2307 22.7483 37.7986 22.7483 37.3585C22.7483 36.9184 22.8876 36.4863 23.1559 36.1677C23.4205 35.8535 23.8188 35.639 24.3668 35.639V35.239C23.7025 35.239 23.1916 35.5044 22.85 35.91C22.5121 36.3112 22.3483 36.8388 22.3483 37.3585C22.3483 37.8781 22.5121 38.4057 22.85 38.8069C23.1916 39.2126 23.7025 39.4779 24.3668 39.4779V39.0779ZM24.5668 39.3183V39.2779H24.1668V39.3183H24.5668ZM46.7537 39.5183C47.1357 39.5183 47.5397 39.5336 47.9533 39.5492L47.9684 39.1495C47.5564 39.1339 47.1446 39.1183 46.7537 39.1183V39.5183ZM46.5537 39.2779V39.3183H46.9537V39.2779H46.5537ZM46.7537 35.239C46.0894 35.239 45.5785 35.5044 45.2369 35.91C44.8991 36.3112 44.7353 36.8388 44.7353 37.3585C44.7353 37.8781 44.8991 38.4057 45.2369 38.8069C45.5785 39.2126 46.0894 39.4779 46.7537 39.4779V39.0779C46.2057 39.0779 45.8074 38.8634 45.5429 38.5493C45.2746 38.2307 45.1353 37.7986 45.1353 37.3585C45.1353 36.9184 45.2746 36.4863 45.5429 36.1677C45.8074 35.8535 46.2057 35.639 46.7537 35.639V35.239ZM47.9083 35.2123C47.5104 35.2258 47.1218 35.239 46.7537 35.239V35.639C47.1298 35.639 47.5254 35.6256 47.9219 35.6121L47.9083 35.2123ZM47.9152 35.2122H47.9151V35.6122H47.9152V35.2122ZM47.9154 35.2122H47.9152V35.6122H47.9154V35.2122ZM47.9155 35.2122H47.9154V35.6122H47.9155V35.2122ZM47.9156 35.2122H47.9155V35.6122H47.9156V35.2122ZM52.6515 37.3787C52.6515 36.8093 52.4929 36.3669 52.2011 36.0344C51.9124 35.7053 51.5103 35.5034 51.0579 35.3794C50.1621 35.1337 48.9937 35.1754 47.9088 35.2123L47.9224 35.6121C49.0282 35.5745 50.1277 35.5391 50.9521 35.7651C51.3598 35.8769 51.681 36.0481 51.9005 36.2982C52.1169 36.5448 52.2515 36.8877 52.2515 37.3787H52.6515ZM47.9533 39.5492C49.0314 39.5899 50.1892 39.6356 51.0761 39.3901C51.5244 39.266 51.9223 39.063 52.2076 38.7315C52.4956 38.3969 52.6515 37.9517 52.6515 37.3787H52.2515C52.2515 37.8757 52.1182 38.2222 51.9044 38.4705C51.688 38.722 51.3716 38.8933 50.9694 39.0046C50.1553 39.2299 49.0679 39.1909 47.9684 39.1495L47.9533 39.5492ZM36.7748 39.1495C36.3628 39.1339 35.951 39.1183 35.5601 39.1183V39.5183C35.9421 39.5183 36.3461 39.5336 36.7597 39.5492L36.7748 39.1495ZM41.0579 37.3787C41.0579 37.8757 40.9246 38.2222 40.7108 38.4705C40.4944 38.722 40.178 38.8933 39.7758 39.0046C38.9617 39.2299 37.8743 39.1909 36.7748 39.1495L36.7597 39.5492C37.8378 39.5899 38.9956 39.6356 39.8825 39.3901C40.3308 39.266 40.7286 39.063 41.014 38.7315C41.302 38.3969 41.4579 37.9517 41.4579 37.3787H41.0579ZM36.7288 35.6121C37.8346 35.5745 38.9341 35.5391 39.7585 35.7651C40.1662 35.8769 40.4874 36.0481 40.7069 36.2982C40.9233 36.5448 41.0579 36.8877 41.0579 37.3787H41.4579C41.4579 36.8093 41.2993 36.3669 41.0075 36.0344C40.7188 35.7053 40.3167 35.5034 39.8643 35.3794C38.9685 35.1337 37.8001 35.1754 36.7152 35.2123L36.7288 35.6121ZM36.7219 35.6122H36.722V35.2122H36.7219V35.6122ZM36.7218 35.6122H36.7219V35.2122H36.7218V35.6122ZM36.7216 35.6122H36.7218V35.2122H36.7216V35.6122ZM35.5601 35.639C35.9363 35.639 36.3319 35.6256 36.7284 35.6121L36.7148 35.2123C36.3169 35.2258 35.9283 35.239 35.5601 35.239V35.639ZM35.5601 39.0779C35.0121 39.0779 34.6138 38.8634 34.3493 38.5493C34.081 38.2307 33.9417 37.7986 33.9417 37.3585C33.9417 36.9184 34.081 36.4863 34.3493 36.1677C34.6138 35.8535 35.0121 35.639 35.5601 35.639V35.239C34.8958 35.239 34.3849 35.5044 34.0433 35.91C33.7055 36.3112 33.5417 36.8388 33.5417 37.3585C33.5417 37.8781 33.7055 38.4057 34.0433 38.8069C34.3849 39.2126 34.8958 39.4779 35.5601 39.4779V39.0779ZM35.7601 39.3183V39.2779H35.3601V39.3183H35.7601ZM46.6325 48.8126H50.7947V48.4126H46.6325V48.8126ZM47.3195 44.5737C46.4706 44.5737 45.8353 44.8266 45.4051 45.2272C44.9761 45.6267 44.7678 46.1582 44.7456 46.6847C44.7018 47.7239 45.3962 48.8126 46.6325 48.8126V48.4126C45.6867 48.4126 45.1082 47.5818 45.1452 46.7015C45.1635 46.2683 45.3339 45.8401 45.6778 45.5199C46.0205 45.2007 46.5519 44.9737 47.3195 44.9737V44.5737ZM50.1077 44.5737H47.3195V44.9737H50.1077V44.5737ZM50.7947 48.8126C52.0138 48.8126 52.6949 47.7204 52.6513 46.6847C52.6292 46.1591 52.4239 45.6278 52.0003 45.2281C51.5753 44.827 50.9472 44.5737 50.1077 44.5737V44.9737C50.8645 44.9737 51.388 45.2002 51.7257 45.519C52.0648 45.839 52.2334 46.2675 52.2516 46.7015C52.2889 47.5853 51.7173 48.4126 50.7947 48.4126V48.8126ZM28.3674 48.4126H24.2053V48.8126H28.3674V48.4126ZM27.6805 44.9737C28.4372 44.9737 28.9607 45.2002 29.2985 45.519C29.6376 45.839 29.8061 46.2675 29.8244 46.7015C29.8616 47.5853 29.29 48.4126 28.3674 48.4126V48.8126C29.5865 48.8126 30.2677 47.7204 30.224 46.6847C30.2019 46.1591 29.9967 45.6278 29.573 45.2281C29.1481 44.827 28.5199 44.5737 27.6805 44.5737V44.9737ZM24.8922 44.9737H27.6805V44.5737H24.8922V44.9737ZM24.2053 48.4126C23.2595 48.4126 22.6809 47.5818 22.718 46.7015C22.7362 46.2683 22.9067 45.8401 23.2505 45.5199C23.5932 45.2007 24.1247 44.9737 24.8922 44.9737V44.5737C24.0434 44.5737 23.408 44.8266 22.9779 45.2272C22.5489 45.6267 22.3405 46.1582 22.3183 46.6847C22.2746 47.7239 22.969 48.8126 24.2053 48.8126V48.4126ZM35.4389 48.8126H39.6011V48.4126H35.4389V48.8126ZM36.1259 44.5737C35.277 44.5737 34.6417 44.8266 34.2115 45.2272C33.7825 45.6267 33.5742 46.1582 33.552 46.6847C33.5082 47.7239 34.2026 48.8126 35.4389 48.8126V48.4126C34.4931 48.4126 33.9146 47.5818 33.9516 46.7015C33.9699 46.2683 34.1403 45.8401 34.4842 45.5199C34.8269 45.2007 35.3583 44.9737 36.1259 44.9737V44.5737ZM38.9141 44.5737H36.1259V44.9737H38.9141V44.5737ZM39.6011 48.8126C40.8202 48.8126 41.5013 47.7204 41.4577 46.6847C41.4356 46.1591 41.2303 45.6278 40.8067 45.2281C40.3817 44.827 39.7536 44.5737 38.9141 44.5737V44.9737C39.6709 44.9737 40.1944 45.2002 40.5321 45.519C40.8712 45.839 41.0398 46.2675 41.058 46.7015C41.0953 47.5853 40.5237 48.4126 39.6011 48.4126V48.8126Z" fill="#F0FAFC" mask="url(#path-1-inside-1_464_276)"/>
<defs>
<linearGradient id="paint0_linear_464_276" x1="38" y1="3.07522e-08" x2="38" y2="75" gradientUnits="userSpaceOnUse">
<stop stop-color="#00858A"/>
<stop offset="1" stop-color="#0C51A3"/>
</linearGradient>
</defs>
</svg>
